<svg width="214" height="192" viewBox="0 0 214 192" fill="none" xmlns="http://www.w3.org/2000/svg">
<mask id="path-1-inside-1_75_55" fill="white">
<path d="M139.333 61.5967L138.573 53.6167L130.973 56.15C117.948 60.6755 104.039 62.0642 90.3766 60.2034C76.0199 57.9754 61.3251 59.9552 48.07 65.9034C41.043 68.8955 34.8761 73.5978 30.1306 79.5822C25.3852 85.5665 22.212 92.6428 20.9 100.167C19.1987 109.886 20.0498 119.881 23.37 129.173C25.5078 124.348 28.006 119.69 30.8433 115.24C37.2792 105.771 46.1971 98.2552 56.62 93.5167C66.6611 88.9322 77.6364 86.7631 88.6666 87.1834C78.1661 88.7889 68.115 92.5634 59.1533 98.2667C54.8306 100.983 50.872 104.239 47.3733 107.957C44.0272 111.673 41.0768 115.727 38.57 120.053C33.8613 129.097 30.5109 138.786 28.6266 148.807C26.5956 158.86 25.4932 169.078 25.3333 179.333H38C38.5953 170.136 39.844 160.993 41.7366 151.973C50.5237 156.718 60.3779 159.138 70.3633 159.003C79.6763 158.997 88.8935 157.123 97.47 153.493C145.667 132.91 139.333 64.4467 139.333 61.5967Z"/>
</mask>
<path d="M139.333 61.5967L138.573 53.6167L130.973 56.15C117.948 60.6755 104.039 62.0642 90.3766 60.2034C76.0199 57.9754 61.3251 59.9552 48.07 65.9034C41.043 68.8955 34.8761 73.5978 30.1306 79.5822C25.3852 85.5665 22.212 92.6428 20.9 100.167C19.1987 109.886 20.0498 119.881 23.37 129.173C25.5078 124.348 28.006 119.69 30.8433 115.24C37.2792 105.771 46.1971 98.2552 56.62 93.5167C66.6611 88.9322 77.6364 86.7631 88.6666 87.1834C78.1661 88.7889 68.115 92.5634 59.1533 98.2667C54.8306 100.983 50.872 104.239 47.3733 107.957C44.0272 111.673 41.0768 115.727 38.57 120.053C33.8613 129.097 30.5109 138.786 28.6266 148.807C26.5956 158.86 25.4932 169.078 25.3333 179.333H38C38.5953 170.136 39.844 160.993 41.7366 151.973C50.5237 156.718 60.3779 159.138 70.3633 159.003C79.6763 158.997 88.8935 157.123 97.47 153.493C145.667 132.91 139.333 64.4467 139.333 61.5967Z" fill="#76D239" stroke="black" stroke-width="8" mask="url(#path-1-inside-1_75_55)"/>
<mask id="path-2-inside-2_75_55" fill="white">
<path d="M109.583 134.25C122.822 134.247 135.679 129.815 146.107 121.66L178.894 154.447L189.44 143.901L156.653 111.114C164.812 100.685 169.247 87.825 169.25 74.5832C169.25 41.6845 142.482 14.9165 109.583 14.9165C76.6846 14.9165 49.9167 41.6845 49.9167 74.5832C49.9167 107.482 76.6846 134.25 109.583 134.25ZM109.583 29.8332C134.263 29.8332 154.333 49.9035 154.333 74.5832C154.333 99.2628 134.263 119.333 109.583 119.333C84.9037 119.333 64.8334 99.2628 64.8334 74.5832C64.8334 49.9035 84.9037 29.8332 109.583 29.8332Z"/>
</mask>
<path d="M109.583 134.25C122.822 134.247 135.679 129.815 146.107 121.66L178.894 154.447L189.44 143.901L156.653 111.114C164.812 100.685 169.247 87.825 169.25 74.5832C169.25 41.6845 142.482 14.9165 109.583 14.9165C76.6846 14.9165 49.9167 41.6845 49.9167 74.5832C49.9167 107.482 76.6846 134.25 109.583 134.25ZM109.583 29.8332C134.263 29.8332 154.333 49.9035 154.333 74.5832C154.333 99.2628 134.263 119.333 109.583 119.333C84.9037 119.333 64.8334 99.2628 64.8334 74.5832C64.8334 49.9035 84.9037 29.8332 109.583 29.8332Z" fill="black" stroke="black" stroke-width="2" mask="url(#path-2-inside-2_75_55)"/>
<circle opacity="0.8" cx="109.5" cy="74.5" r="47.5" fill="#D29739"/>
<g clip-path="url(#clip0_75_55)">
<path d="M114.602 63.5329C114.472 63.1013 114.176 62.7389 113.78 62.5249C113.383 62.311 112.918 62.263 112.486 62.3915L111.403 62.7125C110.624 61.2476 109.41 60.0605 107.928 59.315L108.199 58.2783C108.312 57.8412 108.247 57.3772 108.018 56.9881C107.789 56.599 107.415 56.3169 106.978 56.2038C106.541 56.0906 106.077 56.1557 105.688 56.3847C105.299 56.6137 105.017 56.9879 104.904 57.425L104.634 58.4545C104.099 58.4361 103.563 58.4714 103.034 58.5599C101.962 58.7459 100.901 58.9949 99.8581 59.3057L99.5501 58.4459C99.3944 58.0275 99.0804 57.6871 98.6759 57.4981C98.2715 57.3092 97.8089 57.2868 97.3881 57.4358C96.9673 57.5849 96.6219 57.8934 96.4265 58.2948C96.2312 58.6963 96.2015 59.1584 96.3439 59.5815L96.6519 60.4449C95.1866 61.0813 93.7797 61.8444 92.447 62.7254L91.8738 61.9638C91.6024 61.604 91.1999 61.366 90.7538 61.3016C90.3078 61.2372 89.8544 61.3516 89.4923 61.6199C89.3133 61.7524 89.1623 61.919 89.0479 62.1101C88.9336 62.3011 88.8582 62.5129 88.826 62.7333C88.7938 62.9536 88.8056 63.1782 88.8605 63.394C88.9155 63.6098 89.0126 63.8126 89.1462 63.9907L89.7194 64.7523C88.5083 65.7868 87.3889 66.924 86.3735 68.1512L85.5854 67.578C85.4064 67.4383 85.2012 67.3359 84.9819 67.2769C84.7626 67.2179 84.5337 67.2036 84.3087 67.2347C84.0838 67.2658 83.8674 67.3418 83.6723 67.4581C83.4773 67.5744 83.3076 67.7287 83.1733 67.9118C83.0389 68.0949 82.9428 68.3031 82.8904 68.5241C82.838 68.745 82.8306 68.9743 82.8684 69.1982C82.9063 69.4221 82.9887 69.6361 83.1108 69.8276C83.2329 70.019 83.3922 70.184 83.5793 70.3128L84.3738 70.8903C83.5151 72.2267 82.7739 73.635 82.1585 75.0995L81.2321 74.7821C81.0207 74.7045 80.796 74.6698 80.5711 74.6801C80.3462 74.6903 80.1255 74.7453 79.9221 74.8418C79.7186 74.9383 79.5364 75.0743 79.3862 75.242C79.2359 75.4097 79.1206 75.6057 79.0469 75.8185C78.9733 76.0313 78.9428 76.2566 78.9572 76.4813C78.9716 76.706 79.0307 76.9256 79.1309 77.1272C79.2312 77.3288 79.3706 77.5084 79.5411 77.6556C79.7116 77.8027 79.9096 77.9143 80.1237 77.984L81.0551 78.305C80.781 79.2603 80.5586 80.2296 80.3888 81.2089C80.295 81.8097 80.27 82.4193 80.3143 83.0258L79.2081 83.3525C78.7776 83.4809 78.4157 83.775 78.2021 84.1702C77.9885 84.5653 77.9406 85.0292 78.0689 85.4597C78.1973 85.8901 78.4914 86.252 78.8865 86.4657C79.2817 86.6793 79.7456 86.7272 80.176 86.5988L81.2507 86.2807C82.0308 87.7422 83.2458 88.925 84.7278 89.6653L84.4519 90.7221C84.3962 90.9377 84.3835 91.1622 84.4146 91.3827C84.4457 91.6032 84.5199 91.8154 84.633 92.0072C84.7461 92.1991 84.8959 92.3667 85.0738 92.5006C85.2517 92.6345 85.4543 92.7321 85.6699 92.7877C85.8105 92.8231 85.9548 92.8412 86.0998 92.8414C86.4761 92.8422 86.842 92.7181 87.1402 92.4886C87.4384 92.2591 87.6521 91.9372 87.7477 91.5733L88.0207 90.5251C88.1188 90.5287 88.2191 90.5502 88.3166 90.5502C89.8685 90.542 91.3842 90.0808 92.6777 89.2233L93.4981 90.0644C93.8133 90.3776 94.2387 90.5548 94.683 90.5579C95.1274 90.561 95.5553 90.3898 95.8748 90.081C96.1944 89.7722 96.3802 89.3505 96.3923 88.9063C96.4045 88.4621 96.242 88.0308 95.9398 87.7051L95.0664 86.8095C95.6471 85.9086 96.0397 84.8997 96.2206 83.8433C96.3104 83.341 96.4339 82.8452 96.5903 82.3595L97.4501 82.7636C97.6519 82.8628 97.8715 82.9208 98.0959 82.9343C98.3204 82.9478 98.5453 82.9165 98.7575 82.8422C98.9698 82.7679 99.1652 82.6522 99.3322 82.5017C99.4993 82.3511 99.6348 82.1689 99.7307 81.9655C99.8267 81.7622 99.8812 81.5417 99.8912 81.3171C99.9011 81.0924 99.8662 80.868 99.7886 80.657C99.711 80.4459 99.5921 80.2524 99.439 80.0878C99.2859 79.9231 99.1015 79.7905 98.8966 79.6978L98.0569 79.3045C98.1207 79.2099 98.1709 79.106 98.2375 79.0136C98.4717 78.7026 98.7219 78.4039 98.9869 78.1187C99.3338 77.7287 99.707 77.3629 100.104 77.024C100.407 76.7593 100.723 76.5106 101.052 76.2788C101.159 76.2072 101.274 76.1434 101.383 76.0732L101.758 76.9186C101.848 77.1232 101.977 77.3081 102.138 77.4627C102.3 77.6173 102.49 77.7387 102.698 77.8198C102.906 77.901 103.128 77.9404 103.351 77.9357C103.575 77.9311 103.795 77.8825 103.999 77.7927C104.204 77.703 104.389 77.5738 104.543 77.4126C104.698 77.2514 104.819 77.0613 104.901 76.8532C104.982 76.6451 105.021 76.423 105.016 76.1997C105.012 75.9764 104.963 75.7562 104.873 75.5516L104.489 74.684C104.878 74.5651 105.272 74.467 105.671 74.3902C106.831 74.1914 107.932 73.7377 108.895 73.0619L109.85 73.9217C110.013 74.0821 110.206 74.2081 110.419 74.292C110.631 74.3759 110.859 74.416 111.087 74.4099C111.316 74.4037 111.541 74.3515 111.748 74.2564C111.956 74.1612 112.143 74.0251 112.297 73.8561C112.451 73.6871 112.569 73.4888 112.644 73.2731C112.72 73.0573 112.751 72.8285 112.735 72.6005C112.72 72.3724 112.659 72.1498 112.556 71.9459C112.452 71.742 112.309 71.5611 112.134 71.414L111.207 70.5779C112.039 69.1926 112.429 67.5865 112.324 65.9739L113.455 65.6386C113.669 65.576 113.868 65.4718 114.042 65.332C114.215 65.1922 114.359 65.0195 114.466 64.8239C114.572 64.6282 114.639 64.4135 114.663 64.1919C114.686 63.9704 114.665 63.7464 114.602 63.5329ZM89.4536 82.5243C88.7734 82.5243 88.1085 82.3226 87.543 81.9447C86.9774 81.5668 86.5366 81.0297 86.2763 80.4013C86.016 79.7729 85.9479 79.0814 86.0806 78.4143C86.2133 77.7472 86.5409 77.1344 87.0218 76.6535C87.5028 76.1725 88.1156 75.845 88.7827 75.7123C89.4498 75.5796 90.1413 75.6477 90.7697 75.908C91.3981 76.1683 91.9352 76.6091 92.3131 77.1746C92.6909 77.7402 92.8926 78.4051 92.8926 79.0852C92.8926 79.9973 92.5303 80.8721 91.8854 81.517C91.2404 82.162 90.3657 82.5243 89.4536 82.5243ZM95.1853 72.7803C94.8452 72.7803 94.5128 72.6795 94.23 72.4905C93.9472 72.3016 93.7268 72.033 93.5967 71.7188C93.4666 71.4046 93.4325 71.0589 93.4989 70.7253C93.5652 70.3918 93.729 70.0854 93.9694 69.8449C94.2099 69.6044 94.5163 69.4407 94.8499 69.3743C95.1834 69.308 95.5292 69.342 95.8434 69.4722C96.1576 69.6023 96.4261 69.8227 96.6151 70.1055C96.804 70.3883 96.9049 70.7207 96.9049 71.0608C96.9049 71.5168 96.7237 71.9542 96.4012 72.2767C96.0787 72.5992 95.6414 72.7803 95.1853 72.7803Z" fill="black"/>
</g>
<g clip-path="url(#clip1_75_55)">
<path d="M131.626 90.2856C132.222 90.3605 132.824 90.1961 133.299 89.8282C133.774 89.4604 134.084 88.9192 134.16 88.3233L134.354 86.8294C136.561 86.6717 138.664 85.8331 140.373 84.4294L141.49 85.3205C141.962 85.6946 142.563 85.866 143.161 85.797C143.759 85.7281 144.305 85.4244 144.679 84.9528C145.053 84.4812 145.224 83.8803 145.155 83.2823C145.086 82.6844 144.783 82.1383 144.311 81.7642L143.202 80.8795C143.513 80.2368 143.76 79.5644 143.938 78.8725C144.29 77.4647 144.56 76.0374 144.745 74.598L145.959 74.687C146.553 74.7232 147.138 74.5245 147.587 74.1335C148.036 73.7426 148.313 73.1909 148.359 72.5974C148.404 72.0039 148.215 71.4162 147.831 70.9612C147.447 70.5062 146.9 70.2203 146.307 70.1652L145.088 70.0742C145.104 67.9442 144.934 65.8169 144.581 63.7164L145.819 63.4293C146.404 63.2928 146.911 62.9308 147.231 62.4219C147.55 61.913 147.656 61.2984 147.525 60.7121C147.46 60.4223 147.338 60.1483 147.167 59.9056C146.996 59.663 146.779 59.4566 146.527 59.2983C146.276 59.1401 145.996 59.0331 145.703 58.9835C145.411 58.9339 145.111 58.9426 144.822 59.0093L143.584 59.2965C142.977 57.2613 142.196 55.2823 141.248 53.3815L142.373 52.7305C142.64 52.5879 142.876 52.393 143.066 52.1576C143.256 51.9221 143.397 51.6509 143.481 51.3599C143.565 51.0688 143.589 50.764 143.553 50.4634C143.516 50.1628 143.42 49.8726 143.269 49.6099C143.119 49.3473 142.917 49.1175 142.676 48.9343C142.435 48.7511 142.159 48.6181 141.866 48.5433C141.573 48.4685 141.267 48.4533 140.968 48.4987C140.668 48.5441 140.381 48.6491 140.123 48.8076L138.99 49.4641C137.825 47.6952 136.509 46.0308 135.056 44.4894L135.943 43.5317C136.152 43.3159 136.316 43.0608 136.425 42.781C136.534 42.5013 136.586 42.2027 136.579 41.9025C136.571 41.6024 136.503 41.3068 136.38 41.0331C136.257 40.7593 136.08 40.5128 135.861 40.3081C135.641 40.1033 135.383 39.9444 135.101 39.8406C134.82 39.7367 134.52 39.6901 134.22 39.7034C133.92 39.7166 133.626 39.7896 133.355 39.9179C133.083 40.0462 132.84 40.2273 132.639 40.4506L131.745 41.4125C130.729 40.5622 129.667 39.7673 128.565 39.0313C127.884 38.5923 127.154 38.2324 126.391 37.9588L126.59 36.4338C126.666 35.8397 126.503 35.2397 126.137 34.7658C125.771 34.2919 125.231 33.9828 124.637 33.9067C124.043 33.8306 123.443 33.9936 122.969 34.3598C122.495 34.7261 122.186 35.2656 122.11 35.8597L121.917 37.3416C119.714 37.5027 117.616 38.3448 115.913 39.7512L114.774 38.8439C114.541 38.6595 114.274 38.5228 113.989 38.4415C113.703 38.3602 113.404 38.336 113.109 38.3703C112.814 38.4045 112.529 38.4965 112.27 38.641C112.01 38.7856 111.782 38.9798 111.598 39.2126C111.479 39.3647 111.379 39.531 111.3 39.7075C111.096 40.1658 111.049 40.6789 111.168 41.1664C111.287 41.6539 111.564 42.0882 111.955 42.4014L113.086 43.3005C113.028 43.4182 112.948 43.5289 112.895 43.6476C112.067 45.5438 111.81 47.6406 112.156 49.6806L110.688 50.2261C110.136 50.4411 109.69 50.864 109.446 51.4039C109.202 51.9439 109.18 52.5579 109.383 53.1143C109.587 53.6707 110.001 54.125 110.536 54.3798C111.07 54.6346 111.684 54.6696 112.244 54.4772L113.808 53.8965C114.592 55.0911 115.61 56.1148 116.8 56.9061C117.364 57.287 117.901 57.7054 118.409 58.1585L117.452 58.9881C117.222 59.1806 117.032 59.4168 116.895 59.6832C116.757 59.9495 116.674 60.2405 116.649 60.5394C116.625 60.8383 116.661 61.1389 116.754 61.4239C116.847 61.7089 116.996 61.9725 117.192 62.1993C117.388 62.4262 117.628 62.6118 117.896 62.7453C118.165 62.8788 118.457 62.9575 118.756 62.9769C119.055 62.9963 119.355 62.956 119.639 62.8583C119.922 62.7606 120.183 62.6075 120.407 62.4079L121.34 61.5969C121.421 61.7257 121.521 61.8429 121.597 61.9741C121.85 62.4277 122.079 62.894 122.283 63.3711C122.571 64.0047 122.815 64.6572 123.014 65.3242C123.173 65.8363 123.305 66.3564 123.41 66.8822C123.44 67.0519 123.455 67.2261 123.482 67.3977L122.249 67.3976C121.951 67.3965 121.656 67.4541 121.38 67.567C121.105 67.68 120.854 67.8461 120.643 68.0559C120.431 68.2658 120.263 68.5151 120.148 68.7899C120.033 69.0646 119.973 69.3593 119.972 69.6571C119.971 69.955 120.029 70.2501 120.142 70.5257C120.255 70.8013 120.421 71.0519 120.631 71.2633C120.841 71.4747 121.09 71.6427 121.365 71.7577C121.639 71.8727 121.934 71.9324 122.232 71.9335L123.497 71.9342C123.432 72.4718 123.339 73.0055 123.217 73.5331C122.832 75.0541 122.791 76.6415 123.094 78.1808L121.53 78.8804C121.246 78.9921 120.988 79.1599 120.771 79.3737C120.554 79.5875 120.382 79.843 120.266 80.1248C120.15 80.4066 120.092 80.709 120.096 81.0137C120.1 81.3184 120.165 81.6192 120.288 81.8981C120.411 82.1771 120.589 82.4283 120.811 82.6368C121.033 82.8453 121.295 83.0067 121.581 83.1114C121.868 83.2161 122.172 83.262 122.476 83.2462C122.781 83.2304 123.079 83.1533 123.352 83.0195L124.873 82.3412C126.112 84.104 127.859 85.4468 129.881 86.1903L129.679 87.7505C129.639 88.0449 129.659 88.3442 129.735 88.6311C129.812 88.9181 129.945 89.1871 130.126 89.4226C130.307 89.6582 130.532 89.8556 130.79 90.0037C131.047 90.1518 131.331 90.2476 131.626 90.2856ZM122.064 49.3701C122.432 48.541 123.037 47.8395 123.803 47.3543C124.569 46.8691 125.462 46.622 126.369 46.6442C127.275 46.6665 128.155 46.9571 128.896 47.4793C129.638 48.0015 130.208 48.7318 130.534 49.5779C130.861 50.4241 130.929 51.348 130.73 52.2329C130.531 53.1177 130.075 53.9238 129.418 54.5492C128.761 55.1745 127.934 55.5911 127.04 55.7461C126.146 55.9012 125.227 55.7878 124.398 55.4203C123.286 54.9275 122.416 54.0132 121.978 52.8785C121.54 51.7439 121.571 50.4819 122.064 49.3701ZM130.845 61.6216C131.028 61.207 131.331 60.8563 131.714 60.6137C132.097 60.3711 132.543 60.2475 132.997 60.2586C133.45 60.2698 133.89 60.4151 134.261 60.6762C134.631 60.9373 134.916 61.3024 135.08 61.7255C135.243 62.1486 135.277 62.6105 135.178 63.053C135.078 63.4954 134.85 63.8984 134.521 64.2111C134.193 64.5238 133.779 64.7321 133.333 64.8096C132.886 64.8871 132.426 64.8304 132.011 64.6467C131.456 64.4003 131.02 63.9431 130.801 63.3758C130.583 62.8085 130.598 62.1775 130.845 61.6216Z" fill="black"/>
</g>
<path d="M87.0431 100.328C86.9458 100.522 86.9295 100.747 86.9979 100.953C87.0662 101.16 87.2136 101.331 87.4077 101.429L87.8941 101.674C87.6824 102.446 87.7155 103.265 87.9887 104.017L87.5503 104.291C87.3659 104.407 87.2351 104.591 87.1867 104.804C87.1382 105.016 87.1761 105.239 87.292 105.423C87.4079 105.608 87.5923 105.738 87.8047 105.787C88.017 105.835 88.2399 105.797 88.4243 105.681L88.8596 105.409C89.0414 105.593 89.2412 105.758 89.4559 105.902C89.8938 106.192 90.3484 106.455 90.8173 106.692L90.6408 107.095C90.5569 107.294 90.5544 107.517 90.6338 107.717C90.7131 107.917 90.8681 108.078 91.0651 108.165C91.2621 108.252 91.4854 108.259 91.6868 108.182C91.8883 108.106 92.0517 107.954 92.1418 107.758L92.3195 107.353C93.0444 107.615 93.7907 107.813 94.55 107.945L94.499 108.402C94.4751 108.618 94.5376 108.835 94.6728 109.005C94.808 109.175 95.0049 109.285 95.2208 109.311C95.3275 109.324 95.4356 109.315 95.539 109.286C95.6424 109.257 95.739 109.208 95.8232 109.141C95.9074 109.074 95.9776 108.992 96.0298 108.898C96.082 108.804 96.115 108.7 96.1271 108.594L96.1781 108.137C96.9455 108.175 97.7148 108.146 98.4773 108.052L98.5642 108.514C98.5807 108.622 98.6188 108.726 98.6762 108.819C98.7337 108.912 98.8092 108.993 98.8985 109.057C98.9877 109.12 99.0888 109.165 99.1957 109.189C99.3027 109.213 99.4133 109.215 99.5211 109.195C99.6288 109.175 99.7315 109.134 99.823 109.074C99.9145 109.014 99.993 108.936 100.054 108.845C100.115 108.753 100.157 108.651 100.177 108.543C100.198 108.436 100.196 108.325 100.173 108.218L100.086 107.752C100.83 107.568 101.556 107.319 102.257 107.009L102.477 107.427C102.525 107.524 102.592 107.611 102.675 107.681C102.757 107.752 102.853 107.806 102.956 107.84C103.059 107.873 103.168 107.886 103.277 107.877C103.385 107.867 103.49 107.837 103.586 107.787C103.683 107.736 103.768 107.667 103.837 107.584C103.907 107.5 103.959 107.403 103.99 107.299C104.022 107.196 104.032 107.086 104.021 106.978C104.01 106.87 103.978 106.766 103.925 106.67L103.705 106.249C104.117 106.005 104.516 105.738 104.9 105.451C105.132 105.271 105.342 105.065 105.528 104.838L106.024 105.089C106.217 105.187 106.442 105.204 106.648 105.136C106.853 105.068 107.024 104.921 107.121 104.727C107.219 104.534 107.235 104.309 107.167 104.103C107.099 103.898 106.952 103.727 106.759 103.63L106.277 103.386C106.487 102.615 106.452 101.797 106.177 101.047L106.623 100.768C106.714 100.71 106.793 100.636 106.855 100.548C106.917 100.46 106.962 100.361 106.985 100.257C107.009 100.152 107.012 100.043 106.994 99.9376C106.976 99.8317 106.937 99.7304 106.88 99.6395C106.842 99.5805 106.798 99.5264 106.747 99.4783C106.615 99.3535 106.446 99.2759 106.265 99.2577C106.084 99.2395 105.903 99.2818 105.749 99.3778L105.306 99.6553C105.273 99.6215 105.245 99.5808 105.21 99.5485C104.663 99.0376 103.979 98.6977 103.241 98.5704L103.231 98.0037C103.225 97.7894 103.134 97.5864 102.979 97.4382C102.824 97.2901 102.617 97.2085 102.403 97.2111C102.189 97.2136 101.984 97.3001 101.832 97.452C101.681 97.6038 101.595 97.8089 101.594 98.0233L101.604 98.6267C101.102 98.7506 100.63 98.9746 100.217 99.2854C100.019 99.432 99.8114 99.565 99.5957 99.6837L99.4278 99.2573C99.3898 99.1557 99.332 99.0627 99.2577 98.9836C99.1834 98.9046 99.0941 98.8411 98.995 98.7969C98.8959 98.7527 98.7891 98.7286 98.6806 98.7262C98.5722 98.7237 98.4643 98.7428 98.3633 98.7824C98.2623 98.822 98.1702 98.8813 98.0923 98.9568C98.0145 99.0323 97.9524 99.1226 97.9098 99.2224C97.8672 99.3221 97.8448 99.4294 97.8441 99.5378C97.8433 99.6463 97.8641 99.7539 97.9053 99.8542L98.0697 100.27C98.0161 100.282 97.9641 100.302 97.9101 100.313C97.7249 100.344 97.5383 100.366 97.3509 100.378C97.1 100.4 96.848 100.405 96.5965 100.393C96.4026 100.385 96.2093 100.368 96.0172 100.341C95.9558 100.33 95.8945 100.315 95.8328 100.303L95.9811 99.8822C96.0174 99.7807 96.0332 99.673 96.0278 99.5654C96.0225 99.4578 95.9959 99.3523 95.9498 99.2549C95.9036 99.1575 95.8387 99.0702 95.7588 98.9979C95.6789 98.9256 95.5856 98.8698 95.4841 98.8335C95.3826 98.7973 95.275 98.7815 95.1673 98.7868C95.0597 98.7922 94.9542 98.8187 94.8568 98.8649C94.7595 98.9111 94.6721 98.9759 94.5998 99.0558C94.5275 99.1357 94.4717 99.2291 94.4355 99.3306L94.283 99.7622C94.1074 99.6754 93.9365 99.5792 93.7712 99.4742C93.2984 99.16 92.7618 98.9547 92.2001 98.873L92.1496 98.2551C92.1456 98.1449 92.1194 98.0367 92.0726 97.9369C92.0257 97.837 91.9592 97.7477 91.877 97.6742C91.7948 97.6007 91.6986 97.5446 91.5942 97.5092C91.4898 97.4738 91.3793 97.4599 91.2693 97.4682C91.1594 97.4765 91.0523 97.507 90.9544 97.5578C90.8565 97.6085 90.7699 97.6785 90.6997 97.7636C90.6295 97.8486 90.5773 97.947 90.546 98.0527C90.5148 98.1584 90.5052 98.2694 90.5179 98.3789L90.5665 98.9792C89.8159 99.1899 89.1475 99.6245 88.6504 100.225L88.1424 99.9682C88.0467 99.9194 87.9423 99.8899 87.8351 99.8816C87.728 99.8732 87.6202 99.8861 87.5181 99.9195C87.416 99.9529 87.3214 100.006 87.2399 100.076C87.1584 100.146 87.0915 100.232 87.0431 100.328ZM102.155 101.988C102.393 102.214 102.56 102.504 102.633 102.824C102.707 103.144 102.683 103.479 102.567 103.785C102.45 104.092 102.245 104.357 101.978 104.547C101.71 104.737 101.392 104.844 101.064 104.854C100.736 104.863 100.413 104.775 100.135 104.601C99.8569 104.427 99.6368 104.174 99.5025 103.874C99.3682 103.575 99.3256 103.243 99.3802 102.919C99.4348 102.596 99.5842 102.295 99.8093 102.057C100.111 101.737 100.528 101.55 100.968 101.537C101.408 101.524 101.835 101.686 102.155 101.988ZM96.9176 103.51C97.037 103.623 97.1203 103.768 97.1569 103.928C97.1936 104.088 97.1821 104.255 97.1237 104.409C97.0654 104.562 96.9629 104.695 96.8292 104.79C96.6955 104.885 96.5366 104.938 96.3726 104.943C96.2086 104.948 96.0468 104.904 95.9078 104.816C95.7688 104.729 95.6588 104.603 95.5916 104.453C95.5244 104.304 95.5032 104.137 95.5305 103.976C95.5578 103.814 95.6324 103.664 95.745 103.544C95.896 103.384 96.1044 103.291 96.3243 103.284C96.5442 103.278 96.7576 103.359 96.9176 103.51Z" fill="black"/>
<path d="M83.1813 41.8121C83.0208 42.0463 82.932 42.2863 82.9343 42.4796C82.9365 42.6729 83.0297 42.8036 83.1934 42.8432L83.6034 42.9432C83.1419 43.8166 82.9116 44.6599 82.9441 45.3567L82.4149 45.7837C82.1921 45.964 82.0012 46.1985 81.8841 46.4357C81.767 46.6728 81.7334 46.8931 81.7905 47.0482C81.8477 47.2032 81.9911 47.2803 82.189 47.2624C82.387 47.2445 82.6234 47.1332 82.8461 46.9529L83.3716 46.5288C83.4953 46.6619 83.6431 46.7698 83.8127 46.8508C84.1598 47.012 84.532 47.1407 84.9276 47.2362L84.62 47.7142C84.4718 47.9482 84.3973 48.182 84.4126 48.3654C84.428 48.5487 84.5319 48.6667 84.7021 48.6941C84.8722 48.7214 85.0948 48.6558 85.322 48.5114C85.5491 48.367 85.7625 48.1555 85.9162 47.9224L86.2253 47.4427C86.87 47.4823 87.5569 47.4485 88.278 47.3417L88.0795 47.8349C87.9859 48.068 87.9789 48.2741 88.0601 48.4082C88.1412 48.5423 88.3039 48.5935 88.5128 48.5508C88.6159 48.5298 88.7274 48.4861 88.8408 48.4224C88.9542 48.3586 89.0672 48.276 89.1734 48.1793C89.2796 48.0826 89.3768 47.9738 89.4595 47.859C89.5422 47.7442 89.6088 47.6258 89.6553 47.5105L89.8538 47.0173C90.6134 46.8097 91.3963 46.5322 92.1937 46.188L92.1322 46.6421C92.1139 46.7498 92.1188 46.8458 92.1465 46.9247C92.1742 47.0035 92.2242 47.0635 92.2935 47.101C92.3628 47.1386 92.45 47.153 92.5499 47.1433C92.6498 47.1337 92.7604 47.1002 92.8751 47.0448C92.9899 46.9895 93.1064 46.9134 93.2178 46.8211C93.3293 46.7288 93.4333 46.6222 93.5239 46.5075C93.6144 46.3929 93.6895 46.2726 93.7449 46.1537C93.8002 46.0348 93.8345 45.9198 93.8459 45.8155L93.9077 45.3579C94.7152 44.9256 95.5258 44.4321 96.3305 43.8828L96.4171 44.2481C96.4346 44.3339 96.4745 44.4025 96.5344 44.4499C96.5944 44.4974 96.6733 44.5226 96.7664 44.5243C96.8595 44.526 96.9651 44.504 97.0769 44.4596C97.1887 44.4152 97.3045 44.3494 97.4175 44.2659C97.5306 44.1825 97.6386 44.083 97.7352 43.9735C97.8319 43.8639 97.9152 43.7464 97.9805 43.6278C98.0457 43.5092 98.0914 43.3918 98.1151 43.2827C98.1387 43.1735 98.1397 43.0747 98.118 42.992L98.0318 42.6239C98.5253 42.236 99.0124 41.8294 99.4909 41.406C99.782 41.1438 100.06 40.8614 100.32 40.5644L100.738 40.667C100.901 40.7063 101.121 40.6514 101.35 40.5142C101.579 40.3771 101.798 40.1689 101.958 39.9356C102.118 39.7023 102.207 39.4629 102.205 39.2701C102.203 39.0772 102.11 38.9468 101.947 38.9075L101.54 38.8081C102 37.936 102.228 37.0946 102.193 36.4002L102.733 35.9648C102.843 35.8758 102.946 35.7726 103.036 35.6612C103.127 35.5497 103.204 35.4321 103.261 35.3152C103.319 35.1982 103.357 35.0841 103.373 34.9795C103.389 34.8749 103.382 34.7817 103.354 34.7053C103.335 34.6559 103.308 34.6138 103.272 34.58C103.18 34.4922 103.034 34.4658 102.858 34.505C102.683 34.5442 102.486 34.6468 102.3 34.7966L101.766 35.2287C101.743 35.2042 101.728 35.1707 101.704 35.148C101.318 34.7913 100.739 34.6571 100.038 34.7619L100.211 34.1737C100.273 33.9524 100.248 33.7698 100.139 33.6651C100.031 33.5603 99.8497 33.5419 99.6333 33.6136C99.4168 33.6853 99.183 33.8415 98.9819 34.0486C98.7808 34.2558 98.6285 34.4974 98.5577 34.7216L98.3734 35.3479C97.8286 35.6389 97.282 36.0246 96.7663 36.4819C96.5202 36.6985 96.2687 36.9042 96.0135 37.0975L95.982 36.7067C95.9765 36.6129 95.9483 36.5344 95.899 36.4759C95.8497 36.4174 95.7804 36.3799 95.695 36.3657C95.6096 36.3515 95.5098 36.3608 95.4016 36.3931C95.2933 36.4255 95.1787 36.4801 95.0643 36.554C94.95 36.6278 94.8383 36.7194 94.7356 36.8232C94.633 36.9271 94.5415 37.0413 94.4665 37.1591C94.3915 37.2769 94.3345 37.396 94.2988 37.5094C94.2631 37.6229 94.2494 37.7284 94.2585 37.8198L94.2899 38.2008C94.232 38.2307 94.1733 38.2682 94.1157 38.2964C93.9193 38.389 93.7245 38.4721 93.532 38.5453C93.2727 38.649 93.0176 38.7352 92.7687 38.8033C92.5761 38.858 92.3872 38.902 92.2029 38.9353C92.1445 38.9442 92.0878 38.9477 92.0295 38.9554L92.3142 38.4687C92.3834 38.3511 92.434 38.2337 92.4632 38.1231C92.4925 38.0126 92.4998 37.9111 92.4847 37.8243C92.4697 37.7376 92.4325 37.6674 92.3755 37.6177C92.3184 37.568 92.2425 37.5398 92.1521 37.5347C92.0616 37.5296 91.9585 37.5477 91.8485 37.588C91.7386 37.6283 91.6239 37.6899 91.5111 37.7694C91.3983 37.849 91.2896 37.9448 91.1911 38.0514C91.0927 38.1581 91.0064 38.2735 90.9373 38.391L90.645 38.8904C90.4963 38.8564 90.3554 38.8111 90.223 38.7547C89.8487 38.5793 89.3751 38.5379 88.8365 38.6335L88.9847 38.0052C89.0161 37.8915 89.0247 37.787 89.0097 37.6979C88.9948 37.6089 88.9566 37.5371 88.8976 37.4869C88.8386 37.4367 88.76 37.4091 88.6663 37.4058C88.5727 37.4025 88.4661 37.4236 88.3528 37.4677C88.2395 37.5118 88.122 37.5781 88.0072 37.6625C87.8924 37.747 87.7827 37.848 87.6848 37.9593C87.5868 38.0706 87.5026 38.1901 87.4371 38.3104C87.3716 38.4308 87.3263 38.5497 87.3038 38.6599L87.1592 39.2705C86.3365 39.732 85.5242 40.4008 84.8309 41.1874L84.4027 41.0831C84.3222 41.0629 84.2266 41.0659 84.1215 41.0917C84.0165 41.1175 83.904 41.1656 83.7905 41.2333C83.677 41.3011 83.5648 41.3871 83.4602 41.4864C83.3557 41.5857 83.2609 41.6964 83.1813 41.8121ZM97.8448 38.6779C98.0124 38.8359 98.0862 39.0857 98.057 39.3958C98.0277 39.7058 97.8968 40.0622 97.6806 40.4197C97.4645 40.7773 97.1729 41.12 96.8427 41.4045C96.5125 41.689 96.1586 41.9026 95.8256 42.0182C95.4927 42.1338 95.1957 42.1462 94.9722 42.0539C94.7487 41.9617 94.6088 41.7688 94.5701 41.4997C94.5314 41.2307 94.5956 40.8975 94.7548 40.5423C94.9139 40.1872 95.1608 39.826 95.4641 39.5045C95.8709 39.0733 96.3502 38.744 96.7967 38.589C97.2431 38.4339 97.6202 38.4659 97.8448 38.6779ZM92.0876 41.9522C92.1714 42.0312 92.2083 42.1562 92.1937 42.3112C92.1791 42.4662 92.1136 42.6444 92.0056 42.8231C91.8975 43.0019 91.7517 43.1733 91.5866 43.3155C91.4215 43.4578 91.2445 43.5646 91.078 43.6224C90.9116 43.6802 90.7631 43.6864 90.6513 43.6403C90.5396 43.5941 90.4696 43.4977 90.4503 43.3632C90.4309 43.2286 90.4631 43.062 90.5426 42.8845C90.6222 42.7069 90.7456 42.5263 90.8973 42.3655C91.1007 42.1499 91.3403 41.9853 91.5636 41.9078C91.7868 41.8303 91.9753 41.8462 92.0876 41.9522Z" fill="black"/>
<path d="M121.677 112.804C121.888 112.855 122.111 112.819 122.296 112.706C122.482 112.592 122.615 112.41 122.666 112.199L122.795 111.669C123.595 111.7 124.384 111.482 125.055 111.044L125.421 111.409C125.576 111.562 125.785 111.648 126.003 111.647C126.221 111.646 126.429 111.558 126.582 111.403C126.735 111.249 126.821 111.039 126.82 110.821C126.819 110.604 126.731 110.395 126.576 110.242L126.212 109.88C126.35 109.661 126.465 109.429 126.557 109.187C126.739 108.695 126.893 108.192 127.016 107.682L127.449 107.762C127.662 107.799 127.88 107.75 128.057 107.628C128.234 107.505 128.355 107.317 128.395 107.106C128.435 106.894 128.39 106.675 128.27 106.496C128.15 106.318 127.965 106.193 127.754 106.15L127.319 106.069C127.409 105.303 127.432 104.532 127.388 103.762L127.845 103.708C128.061 103.682 128.258 103.572 128.393 103.402C128.528 103.231 128.59 103.014 128.566 102.798C128.554 102.692 128.522 102.588 128.47 102.494C128.418 102.4 128.348 102.317 128.264 102.25C128.18 102.184 128.083 102.134 127.98 102.105C127.876 102.075 127.768 102.066 127.662 102.079L127.205 102.133C127.067 101.377 126.865 100.634 126.6 99.9133L127.03 99.7238C127.131 99.6831 127.224 99.6223 127.302 99.5452C127.38 99.4681 127.441 99.3761 127.483 99.2748C127.524 99.1734 127.545 99.0648 127.544 98.9552C127.543 98.8457 127.52 98.7375 127.476 98.637C127.432 98.5366 127.369 98.446 127.289 98.3705C127.21 98.2951 127.116 98.2364 127.013 98.1978C126.911 98.1593 126.802 98.1417 126.692 98.1462C126.583 98.1507 126.475 98.1771 126.376 98.2238L125.943 98.415C125.594 97.7327 125.186 97.082 124.725 96.4701L125.082 96.1608C125.166 96.0915 125.235 96.0062 125.285 95.9099C125.335 95.8137 125.366 95.7083 125.375 95.6001C125.384 95.4918 125.372 95.3829 125.338 95.2795C125.305 95.1762 125.251 95.0806 125.18 94.9982C125.109 94.9159 125.023 94.8485 124.925 94.8C124.828 94.7515 124.722 94.7228 124.614 94.7157C124.506 94.7086 124.397 94.7232 124.294 94.7586C124.192 94.794 124.097 94.8495 124.016 94.9218L123.656 95.2323C123.324 94.8862 122.974 94.5583 122.607 94.25C122.379 94.065 122.131 93.9067 121.867 93.7781L122 93.2375C122.051 93.0269 122.016 92.8047 121.903 92.6197C121.79 92.4348 121.608 92.3022 121.397 92.2513C121.187 92.2004 120.964 92.2352 120.78 92.3482C120.595 92.4611 120.462 92.6429 120.411 92.8535L120.283 93.3788C119.484 93.3495 118.696 93.5692 118.028 94.0075L117.654 93.6361C117.578 93.5605 117.488 93.5008 117.388 93.4602C117.289 93.4197 117.182 93.3991 117.075 93.3998C116.967 93.4004 116.861 93.4222 116.762 93.4639C116.663 93.5056 116.573 93.5664 116.498 93.6428C116.449 93.6928 116.406 93.7486 116.371 93.809C116.279 93.9657 116.242 94.1484 116.266 94.3284C116.289 94.5084 116.371 94.6756 116.5 94.8038L116.871 95.1719C116.846 95.2119 116.812 95.2486 116.789 95.2892C116.415 95.9383 116.24 96.6822 116.284 97.4295L115.734 97.5675C115.527 97.623 115.35 97.7574 115.241 97.9419C115.132 98.1264 115.099 98.3464 115.15 98.5545C115.202 98.7627 115.332 98.9425 115.515 99.0553C115.697 99.1681 115.916 99.205 116.125 99.1581L116.711 99.0112C116.945 99.4719 117.271 99.8803 117.667 100.212C117.855 100.371 118.032 100.543 118.196 100.726L117.819 100.987C117.729 101.047 117.652 101.124 117.591 101.215C117.531 101.305 117.49 101.406 117.469 101.513C117.449 101.619 117.45 101.729 117.472 101.835C117.494 101.941 117.537 102.042 117.599 102.131C117.66 102.221 117.739 102.297 117.83 102.355C117.922 102.414 118.024 102.454 118.13 102.473C118.237 102.492 118.347 102.489 118.453 102.465C118.558 102.441 118.658 102.397 118.747 102.334L119.114 102.079C119.138 102.128 119.17 102.175 119.192 102.225C119.265 102.398 119.329 102.575 119.383 102.754C119.462 102.994 119.524 103.238 119.569 103.486C119.606 103.676 119.633 103.868 119.649 104.062C119.653 104.124 119.652 104.187 119.655 104.25L119.211 104.201C119.104 104.189 118.996 104.198 118.892 104.228C118.789 104.257 118.692 104.307 118.608 104.374C118.523 104.441 118.453 104.524 118.401 104.619C118.348 104.713 118.315 104.816 118.303 104.923C118.291 105.031 118.3 105.139 118.33 105.243C118.359 105.346 118.409 105.443 118.476 105.527C118.543 105.612 118.626 105.682 118.721 105.734C118.815 105.786 118.918 105.819 119.025 105.832L119.48 105.882C119.436 106.073 119.381 106.261 119.316 106.446C119.118 106.978 119.04 107.547 119.088 108.113L118.498 108.302C118.391 108.331 118.292 108.381 118.205 108.45C118.119 108.518 118.047 108.603 117.994 108.7C117.941 108.796 117.908 108.903 117.898 109.013C117.887 109.122 117.898 109.233 117.931 109.338C117.965 109.443 118.019 109.541 118.09 109.625C118.162 109.708 118.25 109.777 118.349 109.826C118.447 109.875 118.555 109.903 118.665 109.91C118.775 109.916 118.885 109.9 118.989 109.863L119.563 109.679C119.938 110.362 120.514 110.914 121.211 111.262L121.077 111.815C121.051 111.919 121.046 112.028 121.062 112.134C121.078 112.24 121.116 112.342 121.171 112.434C121.227 112.526 121.3 112.606 121.387 112.669C121.474 112.733 121.572 112.779 121.677 112.804ZM119.859 97.7105C120.024 97.4269 120.27 97.1986 120.564 97.0544C120.859 96.9103 121.19 96.8568 121.515 96.9008C121.84 96.9447 122.145 97.084 122.391 97.3012C122.637 97.5184 122.813 97.8037 122.897 98.1209C122.981 98.4381 122.969 98.7731 122.862 99.0834C122.756 99.3938 122.56 99.6656 122.299 99.8645C122.038 100.063 121.724 100.18 121.396 100.201C121.069 100.221 120.742 100.144 120.459 99.9788C120.078 99.7575 119.802 99.3942 119.689 98.9688C119.577 98.5434 119.638 98.0908 119.859 97.7105ZM122.531 102.464C122.614 102.323 122.737 102.209 122.884 102.136C123.031 102.064 123.197 102.038 123.36 102.06C123.522 102.082 123.675 102.151 123.797 102.26C123.92 102.368 124.008 102.511 124.05 102.67C124.092 102.828 124.086 102.996 124.033 103.151C123.98 103.306 123.882 103.442 123.751 103.541C123.621 103.641 123.464 103.699 123.3 103.71C123.136 103.72 122.973 103.681 122.831 103.599C122.641 103.488 122.503 103.306 122.446 103.094C122.39 102.881 122.421 102.655 122.531 102.464Z" fill="black"/>
<path d="M71.0363 68.0999C71.1301 68.1399 71.2682 68.1294 71.4202 68.0706C71.5722 68.0119 71.7257 67.9097 71.8471 67.7865L72.1517 67.4777C72.5776 67.5336 73.1079 67.441 73.6692 67.2126L73.7096 67.4467C73.7271 67.5451 73.8044 67.6057 73.9246 67.6153C74.0448 67.6249 74.198 67.5826 74.3505 67.4978C74.503 67.413 74.6423 67.2926 74.7378 67.163C74.8333 67.0335 74.8772 66.9055 74.8597 66.8071L74.8195 66.5747C74.9917 66.4511 75.1575 66.3186 75.3144 66.1791C75.632 65.895 75.9382 65.6034 76.2313 65.3058L76.434 65.3738C76.5345 65.4055 76.6757 65.3871 76.8271 65.3224C76.9786 65.2577 77.1281 65.152 77.2435 65.028C77.3588 64.9041 77.4307 64.7719 77.4437 64.6599C77.4567 64.5479 77.4097 64.4652 77.3129 64.4295L77.1097 64.3609C77.497 63.9101 77.8504 63.4524 78.1657 62.9929L78.4406 62.9821C78.5707 62.9769 78.7275 62.9207 78.8769 62.8257C79.0263 62.7308 79.1562 62.6048 79.2384 62.4752C79.279 62.4112 79.3066 62.3482 79.3196 62.2898C79.3325 62.2315 79.3306 62.1789 79.3139 62.1352C79.2972 62.0915 79.2661 62.0575 79.2223 62.0352C79.1785 62.0128 79.1229 62.0025 79.0588 62.005L78.7839 62.0157C79.0419 61.5598 79.2583 61.1088 79.4307 60.6676L79.7508 60.5751C79.8247 60.5557 79.9023 60.5239 79.9791 60.4817C80.0559 60.4395 80.1303 60.3877 80.1979 60.3294C80.2655 60.2711 80.3249 60.2075 80.3726 60.1423C80.4203 60.0772 80.4553 60.0118 80.4756 59.95C80.4958 59.8882 80.5009 59.8314 80.4906 59.7828C80.4802 59.7342 80.4546 59.6949 80.4153 59.6671C80.3759 59.6394 80.3236 59.6238 80.2615 59.6213C80.1994 59.6188 80.1287 59.6295 80.0536 59.6526L79.7309 59.7459C79.8403 59.3239 79.9036 58.9178 79.92 58.5324L80.2528 58.3653C80.3293 58.328 80.4049 58.2806 80.475 58.2257C80.5452 58.1708 80.6085 58.1096 80.6613 58.0457C80.714 57.9818 80.7552 57.9164 80.7824 57.8534C80.8097 57.7904 80.8223 57.731 80.8197 57.6787C80.8171 57.6264 80.7993 57.5823 80.7673 57.5489C80.7353 57.5155 80.6897 57.4935 80.6333 57.4842C80.5769 57.4748 80.5107 57.4784 80.4386 57.4946C80.3666 57.5108 80.2901 57.5394 80.2136 57.5786L79.8788 57.7462C79.8492 57.5249 79.8014 57.3135 79.7358 57.1129C79.6922 56.9923 79.6257 56.8865 79.5376 56.7976L79.8487 56.4825C79.9697 56.3596 80.0486 56.2259 80.0682 56.1106C80.0877 55.9953 80.0463 55.908 79.953 55.8678C79.8597 55.8276 79.7222 55.8379 79.5707 55.8964C79.4192 55.9548 79.2662 56.0566 79.1452 56.1795L78.843 56.4858C78.417 56.4308 77.887 56.5243 77.3263 56.7535L77.2848 56.5151C77.2762 56.4666 77.2528 56.4268 77.216 56.3981C77.1792 56.3693 77.1298 56.3521 77.0705 56.3474C77.0111 56.3427 76.9431 56.3507 76.8703 56.3708C76.7975 56.3909 76.7213 56.4229 76.6461 56.4647C76.5972 56.4922 76.5491 56.5234 76.5031 56.5576C76.3836 56.6465 76.2826 56.7533 76.216 56.8614C76.1494 56.9696 76.1209 57.0728 76.135 57.1551L76.1763 57.3914C76.1447 57.414 76.1103 57.4342 76.0794 57.4572C75.5879 57.8256 75.1631 58.2596 74.8573 58.706L74.4943 58.7622C74.356 58.7854 74.1994 58.857 74.058 58.9616C73.9166 59.0661 73.8017 59.1954 73.738 59.3215C73.6743 59.4477 73.6668 59.5607 73.7172 59.6364C73.7676 59.712 73.8718 59.7443 74.0075 59.7262L74.394 59.6664C74.3197 59.9513 74.3183 60.2094 74.3898 60.4253C74.4227 60.5288 74.444 60.6393 74.4537 60.7558L74.1315 60.893C74.0553 60.9244 73.9786 60.9669 73.9057 61.0177C73.8328 61.0686 73.7652 61.1269 73.7069 61.1893C73.6487 61.2516 73.6008 61.3168 73.5661 61.381C73.5315 61.4452 73.5108 61.5071 73.5051 61.5631C73.4995 61.6191 73.5091 61.6681 73.5334 61.7072C73.5577 61.7464 73.5961 61.7749 73.6465 61.7911C73.6969 61.8074 73.7583 61.811 73.827 61.8017C73.8957 61.7925 73.9704 61.7706 74.0467 61.7374L74.3612 61.6032C74.3525 61.6338 74.3493 61.6627 74.3394 61.6936C74.3031 61.7999 74.2601 61.908 74.2109 62.0174C74.1484 62.1634 74.0746 62.3115 73.99 62.4609C73.9262 62.5759 73.8562 62.6915 73.7802 62.8072C73.7548 62.8443 73.7262 62.8819 73.7 62.9193L73.4779 62.8694C73.4244 62.8571 73.3609 62.8574 73.2908 62.8702C73.2208 62.883 73.1456 62.908 73.0697 62.944C72.9937 62.9799 72.9185 63.0259 72.8482 63.0795C72.7779 63.1331 72.7139 63.1931 72.6599 63.2562C72.606 63.3193 72.5631 63.3842 72.5337 63.4472C72.5043 63.5101 72.489 63.57 72.4887 63.6233C72.4883 63.6766 72.5029 63.7223 72.5317 63.7577C72.5604 63.7932 72.6027 63.8178 72.6562 63.8301L72.884 63.8814C72.7753 63.9928 72.6621 64.1021 72.5449 64.209C72.2011 64.5158 71.9071 64.8506 71.6839 65.1891L71.2758 65.2741C71.2046 65.2863 71.1278 65.3114 71.0501 65.3479C70.9724 65.3844 70.8953 65.4316 70.8236 65.4867C70.7518 65.5417 70.6868 65.6034 70.6325 65.6682C70.5781 65.7329 70.5356 65.7993 70.5074 65.8634C70.4792 65.9275 70.4659 65.9879 70.4683 66.0411C70.4707 66.0943 70.4888 66.1391 70.5214 66.1729C70.5541 66.2067 70.6007 66.2287 70.6584 66.2377C70.716 66.2466 70.7836 66.2424 70.8571 66.2251L71.2534 66.1428C71.1585 66.5666 71.2309 66.9219 71.4611 67.1613L71.143 67.4838C71.0828 67.5446 71.0322 67.6088 70.9943 67.6727C70.9563 67.7366 70.9316 67.799 70.9217 67.8563C70.9118 67.9135 70.9168 67.9645 70.9365 68.0063C70.9561 68.0481 70.99 68.0799 71.0363 68.0999ZM76.6984 59.0411C76.9143 58.8802 77.1499 58.756 77.3755 58.6842C77.6011 58.6124 77.8066 58.5961 77.9659 58.6375C78.1253 58.6789 78.2313 58.7761 78.2706 58.9168C78.31 59.0575 78.2808 59.2353 78.1869 59.4279C78.093 59.6204 77.9385 59.819 77.743 59.9985C77.5475 60.178 77.3198 60.3304 77.0885 60.4363C76.8573 60.5423 76.6331 60.5971 76.4441 60.5938C76.2551 60.5905 76.1099 60.5293 76.0269 60.4178C75.9155 60.2684 75.9237 60.0394 76.0497 59.7812C76.1756 59.523 76.409 59.2568 76.6984 59.0411ZM76.0691 61.993C76.177 61.9126 76.2948 61.8505 76.4076 61.8146C76.5204 61.7787 76.6232 61.7706 76.7028 61.7913C76.7825 61.812 76.8355 61.8606 76.8552 61.9309C76.8749 62.0012 76.8603 62.0902 76.8133 62.1864C76.7664 62.2827 76.6891 62.382 76.5914 62.4717C76.4936 62.5615 76.3797 62.6377 76.2641 62.6907C76.1485 62.7436 76.0364 62.771 75.9419 62.7694C75.8474 62.7678 75.7748 62.7371 75.7333 62.6814C75.6776 62.6067 75.6817 62.4922 75.7447 62.3631C75.8077 62.234 75.9243 62.1009 76.0691 61.993Z" fill="black"/>
<defs>
<clipPath id="clip0_75_55">
<rect width="36.6832" height="36.6832" fill="white" transform="translate(77.9901 56.1582)"/>
</clipPath>
<clipPath id="clip1_75_55">
<rect width="48.9109" height="48.9109" fill="white" transform="translate(160.397 49.6421) rotate(113.906)"/>
</clipPath>
</defs>
</svg>
